<?xml version="1.0" encoding="UTF-8" standalone="no"?>
<svg
   xmlns:dc="http://purl.org/dc/elements/1.1/"
   xmlns:cc="http://creativecommons.org/ns#"
   xmlns:rdf="http://www.w3.org/1999/02/22-rdf-syntax-ns#"
   xmlns:svg="http://www.w3.org/2000/svg"
   xmlns="http://www.w3.org/2000/svg"
   xmlns:xlink="http://www.w3.org/1999/xlink"
   xmlns:sodipodi="http://sodipodi.sourceforge.net/DTD/sodipodi-0.dtd"
   xmlns:inkscape="http://www.inkscape.org/namespaces/inkscape"
   width="264px"
   height="280px"
   viewBox="0 0 264 280"
   version="1.1"
   id="svg124"
   sodipodi:docname="avataaars-yale-blue.svg"
   inkscape:version="1.0.1 (0767f8302a, 2020-10-17)">
  <metadata
     id="metadata128">
    <rdf:RDF>
      <cc:Work
         rdf:about="">
        <dc:format>image/svg+xml</dc:format>
        <dc:type
           rdf:resource="http://purl.org/dc/dcmitype/StillImage" />
        <dc:title></dc:title>
      </cc:Work>
    </rdf:RDF>
  </metadata>
  <sodipodi:namedview
     pagecolor="#ffffff"
     bordercolor="#666666"
     borderopacity="1"
     objecttolerance="10"
     gridtolerance="10"
     guidetolerance="10"
     inkscape:pageopacity="0"
     inkscape:pageshadow="2"
     inkscape:window-width="1856"
     inkscape:window-height="1017"
     id="namedview126"
     showgrid="false"
     inkscape:zoom="3.0785714"
     inkscape:cx="109.02464"
     inkscape:cy="129.95411"
     inkscape:window-x="1984"
     inkscape:window-y="27"
     inkscape:window-maximized="1"
     inkscape:current-layer="svg124"
     inkscape:document-rotation="0" />
  <desc
     id="desc2">Created with getavataaars.com</desc>
  <defs
     id="defs7">
    <circle
       id="path-1"
       cx="120"
       cy="120"
       r="120" />
    <path
       d="M12,160 C12,226.27417 65.72583,280 132,280 C198.27417,280 252,226.27417 252,160 L264,160 L264,-1.42108547e-14 L-3.19744231e-14,-1.42108547e-14 L-3.19744231e-14,160 L12,160 Z"
       id="path-3" />
    <path
       d="M124,144.610951 L124,163 L128,163 L128,163 C167.764502,163 200,195.235498 200,235 L200,244 L0,244 L0,235 C-4.86974701e-15,195.235498 32.235498,163 72,163 L72,163 L76,163 L76,144.610951 C58.7626345,136.422372 46.3722246,119.687011 44.3051388,99.8812385 C38.4803105,99.0577866 34,94.0521096 34,88 L34,74 C34,68.0540074 38.3245733,63.1180731 44,62.1659169 L44,56 L44,56 C44,25.072054 69.072054,5.68137151e-15 100,0 L100,0 L100,0 C130.927946,-5.68137151e-15 156,25.072054 156,56 L156,62.1659169 C161.675427,63.1180731 166,68.0540074 166,74 L166,88 C166,94.0521096 161.51969,99.0577866 155.694861,99.8812385 C153.627775,119.687011 141.237365,136.422372 124,144.610951 Z"
       id="path-5" />
    <mask
       id="mask-4"
       fill="#ffffff">
      <use
         xlink:href="#path-3"
         id="use16"
         x="0"
         y="0"
         width="100%"
         height="100%" />
    </mask>
  </defs>
  <g
     id="Mask"
     style="fill:none;fill-rule:evenodd;stroke:none;stroke-width:1"
     transform="translate(-1.9121592,-5.8489693)" />
  <g
     id="g1070">
    <g
       id="Circle"
       stroke-width="1"
       fill-rule="evenodd"
       transform="translate(10.087841,34.151031)"
       style="fill:#004e98;stroke:none;fill-opacity:1">
      <mask
         id="mask-2"
         fill="#ffffff">
        <use
           xlink:href="#path-1"
           id="use9"
           x="0"
           y="0"
           width="100%"
           height="100%" />
      </mask>
      <use
         id="Circle-Background"
         fill="#e6e6e6"
         xlink:href="#path-1"
         x="0"
         y="0"
         width="100%"
         height="100%"
         style="fill:#004e98;fill-opacity:1" />
      <g
         id="Color/Palette/Blue-01"
         mask="url(#mask-2)"
         fill="#65c9ff"
         style="fill:#004e98;fill-opacity:1">
        <rect
           id="ðŸ–Color"
           x="0"
           y="0"
           width="240"
           height="240"
           style="fill:#004e98;fill-opacity:1" />
      </g>
    </g>
    <g
       id="Avataaar"
       stroke-width="1"
       fill-rule="evenodd"
       mask="url(#mask-4)"
       style="fill:none;stroke:none"
       transform="translate(-1.9121592,-5.8489693)">
      <g
         id="Body"
         transform="translate(32,36)">
        <mask
           id="mask-6"
           fill="#ffffff">
          <use
             xlink:href="#path-5"
             id="use20"
             x="0"
             y="0"
             width="100%"
             height="100%" />
        </mask>
        <use
           fill="#d0c6ac"
           xlink:href="#path-5"
           id="use23"
           x="0"
           y="0"
           width="100%"
           height="100%" />
        <g
           id="Skin/ðŸ‘¶ðŸ½-03-Brown"
           mask="url(#mask-6)"
           fill="#edb98a">
          <g
             transform="translate(-32)"
             id="Color">
            <rect
               x="0"
               y="0"
               width="264"
               height="244"
               id="rect25" />
          </g>
        </g>
        <path
           d="m 156,79 v 23 c 0,30.92795 -25.07205,56 -56,56 -30.927946,0 -56,-25.07205 -56,-56 V 79 94 c 0,30.92795 25.072054,56 56,56 30.92795,0 56,-25.07205 56,-56 z"
           id="Neck-Shadow"
           fill-opacity="0.1"
           fill="#000000"
           mask="url(#mask-6)" />
      </g>
      <g
         id="Clothing/Hoodie"
         transform="translate(0,170)">
        <defs
           id="defs32">
          <path
             d="M 108,13.070886 C 90.081301,15.075938 76.279842,20.551834 76.004203,34.644968 50.146433,45.568093 32,71.164626 32,100.99949 v 0 V 110 h 200 v -9.00051 C 232,71.164626 213.85357,45.568093 187.9958,34.644983 187.72016,20.551834 173.9187,15.075938 156,13.070886 V 32 32 c 0,13.254834 -10.74517,24 -24,24 v 0 C 118.74517,56 108,45.254834 108,32 Z"
             id="react-path-56" />
        </defs>
        <mask
           id="react-mask-57"
           fill="#ffffff">
          <use
             xlink:href="#react-path-56"
             id="use34"
             x="0"
             y="0"
             width="100%"
             height="100%" />
        </mask>
        <use
           id="Hoodie"
           fill="#b7c1db"
           fill-rule="evenodd"
           xlink:href="#react-path-56"
           x="0"
           y="0"
           width="100%"
           height="100%" />
        <g
           id="Color/Palette/Gray-01"
           mask="url(#react-mask-57)"
           fill-rule="evenodd"
           fill="#262e33">
          <rect
             id="rect38"
             x="0"
             y="0"
             width="264"
             height="110" />
        </g>
        <path
           d="M 102,61.739053 V 110 H 95 V 58.150262 c 2.203754,1.309796 4.546769,2.510526 7,3.588791 z m 67,-3.588791 V 98.5 c 0,1.933 -1.567,3.5 -3.5,3.5 -1.933,0 -3.5,-1.567 -3.5,-3.5 V 61.739053 c 2.45323,-1.078265 4.79625,-2.278995 7,-3.588791 z"
           id="Straps"
           fill="#f4f4f4"
           fill-rule="evenodd"
           mask="url(#react-mask-57)" />
        <path
           d="M 90.960133,12.724354 C 75.90931,15.571178 65.5,21.242885 65.5,32.307692 65.5,52.020009 98.537681,68 132,68 165.46232,68 198.5,52.020009 198.5,32.307692 198.5,21.242885 188.09069,15.571178 173.03987,12.724354 182.12492,16.07446 188,21.706055 188,31.076923 188,51.468975 160.17879,68 132,68 103.82121,68 76,51.468975 76,31.076923 76,21.706055 81.875079,16.07446 90.960133,12.724354 Z"
           id="Shadow"
           fill-opacity="0.16"
           fill="#000000"
           fill-rule="evenodd"
           mask="url(#react-mask-57)" />
      </g>
      <g
         id="Face"
         transform="translate(76,82)"
         fill="#000000">
        <g
           id="Mouth/Smile"
           transform="translate(2,52)">
          <defs
             id="defs45">
            <path
               d="M 35.117844,15.128077 C 36.175712,24.619802 44.225987,32 54,32 63.804206,32 71.874008,24.574136 72.891759,15.040055 72.973669,14.272746 72.116743,13 71.042767,13 c -14.894013,0 -26.304846,0 -33.955943,0 -1.080207,0 -2.074818,1.178444 -1.96898,2.128077 z"
               id="react-path-74" />
          </defs>
          <mask
             id="react-mask-75"
             fill="#ffffff">
            <use
               xlink:href="#react-path-74"
               id="use47"
               x="0"
               y="0"
               width="100%"
               height="100%" />
          </mask>
          <use
             id="Mouth"
             fill-opacity="0.7"
             fill="#000000"
             fill-rule="evenodd"
             xlink:href="#react-path-74"
             x="0"
             y="0"
             width="100%"
             height="100%" />
          <rect
             id="Teeth"
             fill="#ffffff"
             fill-rule="evenodd"
             mask="url(#react-mask-75)"
             x="39"
             y="2"
             width="31"
             height="16"
             rx="5" />
          <g
             id="Tongue"
             stroke-width="1"
             fill-rule="evenodd"
             mask="url(#react-mask-75)"
             fill="#ff4f6d">
            <g
               transform="translate(38,24)"
               id="g56">
              <circle
                 cx="11"
                 cy="11"
                 r="11"
                 id="circle52" />
              <circle
                 cx="21"
                 cy="11"
                 r="11"
                 id="circle54" />
            </g>
          </g>
        </g>
        <g
           id="Nose/Default"
           transform="translate(28,40)"
           fill-opacity="0.16">
          <path
             d="m 16,8 c 0,4.418278 5.372583,8 12,8 v 0 c 6.627417,0 12,-3.581722 12,-8"
             id="Nose" />
        </g>
        <g
           id="Eyes/Happy-ðŸ˜"
           transform="translate(0,8)"
           fill-opacity="0.6">
          <path
             d="M 16.160167,22.447312 C 18.006676,18.648508 22.164422,16 26.99758,16 c 4.816097,0 8.961542,2.629842 10.817772,6.407124 0.551408,1.122074 -0.233248,2.040358 -1.024745,1.359899 -2.451101,-2.10724 -5.931891,-3.423235 -9.793027,-3.423235 -3.740374,0 -7.123822,1.234964 -9.560041,3.227853 -0.890746,0.728653 -1.817438,-0.01326 -1.277372,-1.124329 z"
             id="Squint" />
          <path
             d="M 74.160167,22.447312 C 76.006676,18.648508 80.164422,16 84.99758,16 c 4.816097,0 8.961542,2.629842 10.817772,6.407124 0.551408,1.122074 -0.233248,2.040358 -1.024745,1.359899 -2.451101,-2.10724 -5.931891,-3.423235 -9.793027,-3.423235 -3.740374,0 -7.123822,1.234964 -9.560041,3.227853 -0.890746,0.728653 -1.817438,-0.01326 -1.277372,-1.124329 z"
             id="path63" />
        </g>
        <g
           id="Eyebrow/Natural/Default-Natural"
           fill-opacity="0.6">
          <path
             d="M 26.039093,6.2101236 C 20.277555,6.9834622 11.292931,12.005248 12.04426,17.817811 c 0.02469,0.190243 0.31247,0.249536 0.436648,0.09068 2.486496,-3.188159 21.711889,-7.871946 28.713359,-6.893779 0.640785,0.08973 1.063799,-0.571681 0.626783,-0.984508 C 38.076566,6.4948543 31.200379,5.5122482 26.039093,6.2101236"
             id="Eyebrow"
             transform="rotate(5,27,12)" />
          <path
             d="M 85.039093,6.2101236 C 79.277555,6.9834622 70.292931,12.005248 71.04426,17.817811 c 0.02469,0.190243 0.31247,0.249536 0.436648,0.09068 2.486496,-3.188159 21.711889,-7.871946 28.713362,-6.893779 0.64078,0.08973 1.0638,-0.571681 0.62678,-0.984508 C 97.076566,6.4948543 90.200379,5.5122482 85.039093,6.2101236"
             id="path67"
             transform="matrix(-0.9961947,0.08715574,0.08715574,0.9961947,170.62688,-7.4497303)" />
        </g>
      </g>
      <g
         id="Top"
         stroke-width="1"
         fill-rule="evenodd">
        <defs
           id="defs84">
          <rect
             id="react-path-41"
             x="0"
             y="0"
             width="264"
             height="280" />
          <path
             d="m 183.67982,38.94882 c 5.40625,-4.950258 6.70757,-14.987275 3.63788,-21.499495 -3.76844,-7.9954719 -11.41638,-8.9971476 -18.74536,-5.480655 -6.90787,3.314896 -13.05717,4.419197 -20.62214,2.813062 -7.25858,-1.54104 -14.14463,-4.259115 -21.64681,-4.705485 -12.32536,-0.7333222 -24.30002,3.838318 -32.700267,13.053004 -1.602769,1.757914 -2.894174,3.767908 -4.114843,5.805136 -0.976735,1.630048 -2.07775,3.378995 -2.493234,5.257801 -0.197661,0.893405 0.170226,3.097689 -0.274676,3.829683 -0.48126,0.790447 -2.295903,1.515466 -3.069358,2.101992 -1.566741,1.188659 -2.924252,2.530094 -4.179628,4.047221 -2.666104,3.22157 -4.133685,6.586616 -5.367906,10.571731 -4.102945,13.24497 -4.450669,28.998447 0.853444,42.003957 0.707016,1.734334 2.89814,5.351788 4.186239,1.638019 0.254513,-0.733986 -0.334502,-3.194004 -0.33318,-3.934633 0.0046,-2.720067 1.506078,-20.728801 8.047103,-30.817138 2.12915,-3.283825 11.972806,-15.580774 13.983456,-15.679414 1.06526,1.692819 11.87999,12.508847 39.94284,11.241286 12.66187,-0.571919 22.39927,-6.260774 24.73745,-8.726801 1.02854,5.532797 12.9924,13.815905 14.81542,17.224107 5.26628,9.845497 6.43443,30.303522 8.44474,30.265139 2.01031,-0.03838 3.45344,-5.237557 3.86694,-6.230266 3.07167,-7.375402 3.59458,-16.632237 3.26702,-24.558628 -0.42739,-10.20208 -4.63842,-21.226492 -12.23513,-28.219623 z"
             id="react-path-40" />
          <filter
             x="-0.0080000004"
             y="-0.02"
             width="1.015"
             height="1.08"
             filterUnits="objectBoundingBox"
             id="react-filter-37">
            <feOffset
               dx="0"
               dy="2"
               in="SourceAlpha"
               result="shadowOffsetOuter1"
               id="feOffset73" />
            <feColorMatrix
               values="0 0 0 0 0   0 0 0 0 0   0 0 0 0 0  0 0 0 0.16 0"
               type="matrix"
               in="shadowOffsetOuter1"
               result="shadowMatrixOuter1"
               id="feColorMatrix75" />
            <feMerge
               id="feMerge81">
              <feMergeNode
                 in="shadowMatrixOuter1"
                 id="feMergeNode77" />
              <feMergeNode
                 in="SourceGraphic"
                 id="feMergeNode79" />
            </feMerge>
          </filter>
        </defs>
        <mask
           id="react-mask-39"
           fill="#ffffff">
          <use
             xlink:href="#react-path-41"
             id="use86"
             x="0"
             y="0"
             width="100%"
             height="100%" />
        </mask>
        <g
           id="g89" />
        <g
           id="Top/Short-Hair/Short-Waved"
           mask="url(#react-mask-39)">
          <g
             transform="translate(-1)"
             id="g114">
            <g
               id="Facial-Hair/Beard-Light"
               transform="translate(49,72)">
              <defs
                 id="defs92">
                <path
                   d="m 101.4284,98.168569 c -2.513563,2.294051 -5.19118,3.325741 -8.575456,2.604291 -0.582366,-0.12403 -2.956605,-4.538289 -8.85311,-4.538289 -5.896504,0 -8.270409,4.414259 -8.853109,4.538289 -3.384276,0.72145 -6.061893,-0.31024 -8.575459,-2.604291 -4.725089,-4.312965 -8.654644,-10.260383 -6.293436,-16.749388 1.230554,-3.382239 3.231918,-7.095447 6.872796,-8.17327 3.88779,-1.150369 9.346267,-0.002 13.264128,-0.78764 1.269312,-0.254746 2.6559,-0.707405 3.58508,-1.458271 0.929181,0.750866 2.316103,1.203525 3.584747,1.458271 3.918195,0.785634 9.376671,-0.362729 13.264459,0.78764 3.64088,1.077823 5.64224,4.791031 6.87313,8.17327 2.36121,6.489005 -1.56834,12.436423 -6.29377,16.749388 M 140.08103,26 c -3.41034,8.400253 -2.09326,18.858035 -2.72436,27.675872 -0.51263,7.167322 -2.01955,17.909881 -8.38381,22.538659 -3.2545,2.367083 -9.1785,6.345368 -13.43099,5.235663 -2.92733,-0.763809 -3.23969,-9.160098 -7.08659,-12.303214 -4.36356,-3.564665 -9.812295,-5.130937 -15.306132,-4.889108 -2.37061,0.104396 -7.165011,0.07962 -9.149215,1.902586 -1.984203,-1.822967 -6.778268,-1.79819 -9.148878,-1.902586 -5.494174,-0.241829 -10.942908,1.324443 -15.306473,4.889108 -3.846898,3.143116 -4.158918,11.539405 -7.086249,12.303214 -4.25249,1.109705 -10.176491,-2.86858 -13.431325,-5.235663 C 32.66241,71.585753 31.156165,60.843194 30.642864,53.675872 30.012093,44.858035 31.329173,34.400253 27.918834,26 c -1.659057,0 -0.5648,16.128869 -0.5648,16.128869 V 62.48512 c 0.03164,15.288085 9.581061,38.17033 30.753978,46.90788 5.178115,2.13682 16.907299,5.607 25.891921,5.607 8.984622,0 20.713807,-3.13981 25.891927,-5.27663 21.17291,-8.73756 30.72233,-31.950165 30.75431,-47.23825 V 42.128869 c 0,0 1.09392,-16.128869 -0.56514,-16.128869"
                   id="react-path-53" />
              </defs>
              <mask
                 id="react-mask-52"
                 fill="#ffffff">
                <use
                   xlink:href="#react-path-53"
                   id="use94"
                   x="0"
                   y="0"
                   width="100%"
                   height="100%" />
              </mask>
              <use
                 id="Lite-Beard"
                 fill="#331b0c"
                 fill-rule="evenodd"
                 xlink:href="#react-path-53"
                 x="0"
                 y="0"
                 width="100%"
                 height="100%" />
              <g
                 id="Color/Hair/Brown"
                 mask="url(#react-mask-52)"
                 fill="#4a312c">
                <g
                   transform="translate(-32)"
                   id="g100">
                  <rect
                     x="0"
                     y="0"
                     width="264"
                     height="244"
                     id="rect98" />
                </g>
              </g>
            </g>
            <mask
               id="react-mask-38"
               fill="#ffffff">
              <use
                 xlink:href="#react-path-40"
                 id="use104"
                 x="0"
                 y="0"
                 width="100%"
                 height="100%" />
            </mask>
            <use
               id="Short-Hair"
               stroke="none"
               fill="#28354b"
               fill-rule="evenodd"
               xlink:href="#react-path-40"
               x="0"
               y="0"
               width="100%"
               height="100%" />
            <g
               id="g112"
               mask="url(#react-mask-38)"
               fill="#4a312c">
              <g
                 id="g110">
                <rect
                   x="0"
                   y="0"
                   width="264"
                   height="280"
                   id="rect108" />
              </g>
            </g>
          </g>
        </g>
      </g>
    </g>
  </g>
</svg>
